<?xml version="1.0" encoding="utf-8"?><svg xmlns="http://www.w3.org/2000/svg" height="256" width="256" viewBox="0 0 4000 4000"><path d="M130 1945V560h535l395 790c217 434 397 790 400 790s63-118 134-262c71-145 182-373 248-508s174-355 240-490 127-261 137-280l17-35 267-3c186-2 267 1 267 8 0 6-13 39-29 73s-36 80-46 102-33 73-51 112c-19 40-49 106-68 145-18 40-41 91-51 113s-30 67-45 100c-16 33-40 86-54 117-14 32-37 83-51 113s-36 80-50 110-37 81-51 112c-64 141-109 234-459 948-81 165-161 329-178 365s-36 68-42 72c-5 5-73 7-150 5l-139-2-107-210c-59-115-187-369-285-564l-179-353-3 701-2 701H130V1945zm3034 1115-89-270H1869l7-22c3-12 30-71 59-132 81-171 145-306 171-363l25-53 77-1c42-1 226-5 408-8l331-6-15-50c-8-27-31-102-52-165-20-63-47-149-60-190s-40-127-60-190-47-149-60-190-35-112-51-158c-27-83-27-84-9-120s72-151 145-307c110-234 130-274 136-267 4 4 23 52 42 107 55 158 88 248 97 270 15 37 42 109 56 155 8 25 19 55 25 68 5 12 13 32 18 45 6 12 17 42 25 67 14 46 41 118 56 155 5 11 21 54 35 95 15 41 44 122 65 180 85 233 119 328 145 400 14 41 30 84 35 95 4 11 17 46 29 78 12 31 30 83 42 115 12 31 25 66 29 77 5 11 16 40 24 65 14 46 41 118 56 155 5 11 21 54 35 95 15 41 44 122 65 180s50 139 65 180c14 41 30 84 34 95 5 11 14 33 20 48s11 30 11 32c0 3-152 5-339 5h-338l-89-270z"/></svg>